<?xml version="1.0" encoding="utf-8"?>
<!-- Generator: Adobe Illustrator 21.0.0, SVG Export Plug-In . SVG Version: 6.00 Build 0)  -->
<svg version="1.1" id="Layer_1" xmlns="http://www.w3.org/2000/svg" xmlns:xlink="http://www.w3.org/1999/xlink" x="0px" y="0px"
	 viewBox="0 0 102 81.2" style="enable-background:new 0 0 102 81.2;" xml:space="preserve">
<g>
	<path d="M86.4,75H3.1C1.4,75,0,76.4,0,78.1s1.4,3.1,3.1,3.1h83.3c1.7,0,3.1-1.4,3.1-3.1S88.1,75,86.4,75z"/>
	<path d="M3.1,6.2H76c1.7,0,3.1-1.4,3.1-3.1S77.7,0,76,0H3.1C1.4,0,0,1.4,0,3.1S1.4,6.2,3.1,6.2z"/>
	<path d="M98.9,25H3.1C1.4,25,0,26.4,0,28.1s1.4,3.1,3.1,3.1h95.8c1.7,0,3.1-1.4,3.1-3.1S100.6,25,98.9,25z"/>
	<path d="M3.1,56.2h50c1.7,0,3.1-1.4,3.1-3.1S54.8,50,53.1,50h-50C1.4,50,0,51.4,0,53.1S1.4,56.2,3.1,56.2z"/>
</g>
</svg>
