<?xml version="1.0" encoding="utf-8"?>
<!-- Generator: Adobe Illustrator 21.0.0, SVG Export Plug-In . SVG Version: 6.00 Build 0)  -->
<svg version="1.1" id="Layer_1" xmlns="http://www.w3.org/2000/svg" xmlns:xlink="http://www.w3.org/1999/xlink" x="0px" y="0px"
	 viewBox="0 0 28 28" style="enable-background:new 0 0 28 28;" xml:space="preserve">
<path d="M27.6,0.2c0.3,0.2,0.5,0.6,0.4,1l-4,24c0,0.3-0.2,0.5-0.5,0.7C23.3,26,23.2,26,23,26c-0.1,0-0.2,0-0.4-0.1L15.5,23l-3.8,4.6
	C11.6,27.9,11.3,28,11,28c-0.1,0-0.2,0-0.3-0.1C10.3,27.8,10,27.4,10,27v-5.5L23.5,5L6.8,19.5l-6.2-2.5C0.3,16.8,0,16.5,0,16.1
	c0-0.4,0.2-0.7,0.5-0.9l26-15C26.7,0,26.8,0,27,0C27.2,0,27.4,0.1,27.6,0.2L27.6,0.2z"/>
</svg>
