<svg xmlns="http://www.w3.org/2000/svg" viewBox="0 0 43.3 43.3"><path d="M43.3 14.7v-.2-.1-.1-.1s0-.1-.1-.1c0 0 0-.1-.1-.1l-.1-.1s0-.1-.1-.1l-.1-.1-.1-.1-.1-.1s-.1 0-.1-.1L22.7.3c-.6-.4-1.4-.4-2.1 0L.8 13.5s-.1 0-.1.1l-.1.1s-.1 0-.1.1l-.1.1s0 .1-.1.1l-.1.1s0 .1-.1.1c0 0 0 .1-.1.1V29.1s0 .1.1.1c0 0 0 .1.1.1l.1.1s0 .1.1.1l.1.1.1.1.1.1s.1 0 .1.1L20.6 43c.3.2.7.3 1 .3s.7-.1 1-.3l19.8-13.2s.1 0 .1-.1l.1-.1.1-.1.1-.1s0-.1.1-.1l.1-.1s0-.1.1-.1c0 0 0-.1.1-.1v-.1-.1-.1-.2-.1V15.1c.1-.1.1-.2.1-.4 0 .1 0 .1 0 0zM21.7 26.1l-6.6-4.4 6.6-4.4 6.6 4.4-6.6 4.4zM19.8 14l-8.1 5.4L5.2 15l14.6-9.7V14zM8.4 21.7l-4.7 3.1v-6.2l4.7 3.1zm3.3 2.2l8.1 5.4V38L5.2 28.3l6.5-4.4zm11.8 5.4l8.1-5.4 6.5 4.4L23.5 38v-8.7zM35 21.7l4.7-3.1v6.2L35 21.7zm-3.4-2.3L23.5 14V5.3L38.1 15l-6.5 4.4z"/></svg>