<svg xmlns="http://www.w3.org/2000/svg" width="100" height="100" viewBox="0 0 100 100"><path d="M92.427 14.218H7.868c-1.482 0-2.758 1.126-2.758 2.607V73.298c0 1.48 1.275 2.726 2.757 2.726h33.296c-.04.848-.304 4.503-2.042 6.274-1.368 1.395-3.27 2.704-2.527 3.376.18.41 1.033.65 2.975.65h21.905c2.21 0 2.984-.36 2.99-.902h-.074v-.18h-.08c-.1-.728-1.573-1.808-2.69-2.942-1.736-1.77-2-5.425-2.04-6.274h32.85c1.482 0 2.68-1.244 2.68-2.726V16.827c0-1.483-1.202-2.61-2.683-2.61zM50.11 73.426c-.968 0-1.75-.782-1.75-1.75s.782-1.748 1.75-1.748c.965 0 1.75.782 1.75 1.75 0 .966-.785 1.748-1.75 1.748zm41.204-9.148H8.906V17.834h82.41v46.444z"/></svg>