<svg xmlns="http://www.w3.org/2000/svg" viewBox="0 0 184.3 184.3"><path d="M92.2 184.3C41.3 184.3 0 143 0 92.2S41.3 0 92.2 0s92.2 41.3 92.2 92.2-41.4 92.1-92.2 92.1zm77.7-79.5c-2.7-.9-24.4-7.3-49-3.4 10.3 28.3 14.5 51.3 15.3 56.1 17.6-11.9 30.2-30.8 33.7-52.7zm-47 59.9c-1.2-6.9-5.7-31-16.8-59.7-.2.1-.3.1-.5.2-44.4 15.5-60.3 46.3-61.8 49.2C57.2 164.8 74 171 92.2 171c10.9 0 21.3-2.2 30.7-6.3zm-89.2-19.8c1.8-3.1 23.4-38.8 64-51.9 1-.3 2.1-.6 3.1-.9-2-4.5-4.1-8.9-6.4-13.4-39.3 11.7-77.5 11.2-80.9 11.2v2.4c-.1 20.2 7.6 38.7 20.2 52.6zM15.1 76.2c3.5 0 36 .2 72.8-9.6C74.8 43.4 60.8 23.9 58.7 21c-22 10.4-38.5 30.7-43.6 55.2zm58.6-60.5c2.2 2.9 16.5 22.4 29.4 46.1 28-10.5 39.8-26.4 41.3-28.4-13.9-12.3-32.2-19.8-52.2-19.8-6.4 0-12.6.7-18.5 2.1zm79.4 26.8c-1.7 2.2-14.9 19.2-44 31 1.8 3.7 3.6 7.6 5.2 11.4.6 1.4 1.1 2.7 1.7 4.1 26.2-3.3 52.2 2 54.8 2.5-.1-18.5-6.8-35.6-17.7-49z"/></svg>