<svg version="1" xmlns="http://www.w3.org/2000/svg" width="50.938" height="100" viewBox="0 0 50.938 100"><path d="M43.1 0H7.838C3.51 0 0 3.508 0 7.836v84.327C0 96.49 3.51 100 7.837 100H43.1c4.33 0 7.838-3.51 7.838-7.837V7.836C50.938 3.508 47.428 0 43.1 0zM21.616 8.315h7.708c.576 0 1.043.467 1.043 1.044 0 .575-.467 1.042-1.043 1.042h-7.708c-.577 0-1.044-.467-1.044-1.043 0-.578.468-1.045 1.045-1.045zm-4.492-.4c.687 0 1.244.557 1.244 1.244 0 .686-.557 1.243-1.244 1.243-.687 0-1.244-.557-1.244-1.244 0-.688.557-1.245 1.243-1.245zm8.346 87.857c-2.706 0-4.9-2.192-4.9-4.897 0-2.706 2.194-4.898 4.9-4.898s4.896 2.192 4.896 4.898c0 2.705-2.192 4.897-4.897 4.897zM47.02 82.49H3.92V17.51h43.1v64.98z"/></svg>