<svg xmlns="http://www.w3.org/2000/svg" xmlns:xlink="http://www.w3.org/1999/xlink"><symbol viewBox="0 0 100.1 53.4" id="arrow-down"><path d="M6.9 1.1C5.4-.4 2.8-.4 1.2 1.1s-1.6 4.1 0 5.6l46 45.6c1.6 1.5 4.1 1.5 5.7 0l46-45.6c1.6-1.5 1.6-4.1 0-5.6s-4.1-1.5-5.7 0L50.1 42.6 6.9 1.1z"/></symbol><symbol viewBox="23.3 -0.1 53.4 100.1" id="arrow-left"><path d="M75.6 93.1c1.5 1.6 1.5 4.1 0 5.7-1.5 1.5-4.1 1.6-5.6 0l-45.6-46c-1.5-1.6-1.5-4.1 0-5.7L70 1.2c1.5-1.6 4.1-1.6 5.6 0s1.5 4.1 0 5.7L34.1 50l41.5 43.1z"/></symbol><symbol viewBox="23.3 -0.1 53.4 100.1" id="arrow-right"><path d="M24.4 6.8c-1.5-1.6-1.5-4.1 0-5.7 1.5-1.5 4.1-1.6 5.6 0l45.6 46c1.5 1.6 1.5 4.1 0 5.7L30 98.8c-1.5 1.6-4.1 1.6-5.6 0s-1.5-4.1 0-5.7L65.9 50 24.4 6.8z"/></symbol><symbol viewBox="0 0 43.3 43.3" id="codepen"><path d="M43.3 14.7v-.2-.1-.1-.1s0-.1-.1-.1c0 0 0-.1-.1-.1l-.1-.1s0-.1-.1-.1l-.1-.1-.1-.1-.1-.1s-.1 0-.1-.1L22.7.3c-.6-.4-1.4-.4-2.1 0L.8 13.5s-.1 0-.1.1l-.1.1s-.1 0-.1.1l-.1.1s0 .1-.1.1l-.1.1s0 .1-.1.1c0 0 0 .1-.1.1V29.1s0 .1.1.1c0 0 0 .1.1.1l.1.1s0 .1.1.1l.1.1.1.1.1.1s.1 0 .1.1L20.6 43c.3.2.7.3 1 .3s.7-.1 1-.3l19.8-13.2s.1 0 .1-.1l.1-.1.1-.1.1-.1s0-.1.1-.1l.1-.1s0-.1.1-.1c0 0 0-.1.1-.1v-.1-.1-.1-.2-.1V15.1c.1-.1.1-.2.1-.4 0 .1 0 .1 0 0zM21.7 26.1l-6.6-4.4 6.6-4.4 6.6 4.4-6.6 4.4zM19.8 14l-8.1 5.4L5.2 15l14.6-9.7V14zM8.4 21.7l-4.7 3.1v-6.2l4.7 3.1zm3.3 2.2l8.1 5.4V38L5.2 28.3l6.5-4.4zm11.8 5.4l8.1-5.4 6.5 4.4L23.5 38v-8.7zM35 21.7l4.7-3.1v6.2L35 21.7zm-3.4-2.3L23.5 14V5.3L38.1 15l-6.5 4.4z"/></symbol><symbol viewBox="0 0 100 100" id="desktop"><path d="M92.427 14.218H7.868c-1.482 0-2.758 1.126-2.758 2.607V73.298c0 1.48 1.275 2.726 2.757 2.726h33.296c-.04.848-.304 4.503-2.042 6.274-1.368 1.395-3.27 2.704-2.527 3.376.18.41 1.033.65 2.975.65h21.905c2.21 0 2.984-.36 2.99-.902h-.074v-.18h-.08c-.1-.728-1.573-1.808-2.69-2.942-1.736-1.77-2-5.425-2.04-6.274h32.85c1.482 0 2.68-1.244 2.68-2.726V16.827c0-1.483-1.202-2.61-2.683-2.61zM50.11 73.426c-.968 0-1.75-.782-1.75-1.75s.782-1.748 1.75-1.748c.965 0 1.75.782 1.75 1.75 0 .966-.785 1.748-1.75 1.748zm41.204-9.148H8.906V17.834h82.41v46.444z"/></symbol><symbol viewBox="0 0 184.3 184.3" id="dribbble"><path d="M92.2 184.3C41.3 184.3 0 143 0 92.2S41.3 0 92.2 0s92.2 41.3 92.2 92.2-41.4 92.1-92.2 92.1zm77.7-79.5c-2.7-.9-24.4-7.3-49-3.4 10.3 28.3 14.5 51.3 15.3 56.1 17.6-11.9 30.2-30.8 33.7-52.7zm-47 59.9c-1.2-6.9-5.7-31-16.8-59.7-.2.1-.3.1-.5.2-44.4 15.5-60.3 46.3-61.8 49.2C57.2 164.8 74 171 92.2 171c10.9 0 21.3-2.2 30.7-6.3zm-89.2-19.8c1.8-3.1 23.4-38.8 64-51.9 1-.3 2.1-.6 3.1-.9-2-4.5-4.1-8.9-6.4-13.4-39.3 11.7-77.5 11.2-80.9 11.2v2.4c-.1 20.2 7.6 38.7 20.2 52.6zM15.1 76.2c3.5 0 36 .2 72.8-9.6C74.8 43.4 60.8 23.9 58.7 21c-22 10.4-38.5 30.7-43.6 55.2zm58.6-60.5c2.2 2.9 16.5 22.4 29.4 46.1 28-10.5 39.8-26.4 41.3-28.4-13.9-12.3-32.2-19.8-52.2-19.8-6.4 0-12.6.7-18.5 2.1zm79.4 26.8c-1.7 2.2-14.9 19.2-44 31 1.8 3.7 3.6 7.6 5.2 11.4.6 1.4 1.1 2.7 1.7 4.1 26.2-3.3 52.2 2 54.8 2.5-.1-18.5-6.8-35.6-17.7-49z"/></symbol><symbol viewBox="0 0 16 16" id="github"><path d="M16 8c0 4.4-3.6 8-8 8s-8-3.6-8-8 3.6-8 8-8 8 3.6 8 8zm-6 6.5c2.7-1 4.7-3.5 4.7-6.5 0-3.7-3-6.7-6.7-6.7S1.3 4.3 1.3 8c0 3 2 5.6 4.8 6.5v-1.3c0-.8.3-1.2.6-1.4C5 11.6 3.1 11 3.1 8c0-.8.3-1.5.8-2.1-.1-.1-.3-.9.1-2 0 0 .6-.2 2.1.8.6-.2 1.3-.2 1.9-.2.7 0 1.3.1 1.9.3C11.4 3.8 12 4 12 4c.4 1.1.2 1.8.1 2 .5.5.8 1.2.8 2.1 0 3-1.9 3.6-3.6 3.8.3.1.7.6.7 1.3v1.3z"/></symbol><symbol viewBox="0 0 100 100" id="linkedin"><path d="M22.7 11.4c0 5.9-4.3 10.7-11.6 10.7C4.3 22.1 0 17.3 0 11.4 0 5.4 4.6.7 11.4.7s11.2 4.7 11.3 10.7zM.6 99.3V30.5h21.3v68.8H.6zM34.8 52.5c0-8.6-.3-15.8-.6-21.9h18.6l1 9.6h.4c2.8-4.6 9.7-11.1 21.2-11.1 14.1 0 24.7 9.4 24.7 29.7v40.7H78.7V61.2c0-8.9-3.1-14.9-10.8-14.9-5.9 0-9.4 4.1-11 8-.6 1.4-.7 3.3-.7 5.3v39.7H34.8V52.5z"/></symbol><symbol viewBox="0 0 29 43" id="logo"><path d="M.358 19.45l4.95 4.95 19.09-19.092L19.45.358.358 19.45zm4.95 4.95L9.55 28.64l4.95-4.95-4.243-4.242-4.95 4.95zM4.6 37.69l4.95 4.95L28.642 23.55l-4.95-4.95-19.09 19.092zm9.9-18.384l4.243 4.242 4.95-4.95-4.243-4.242-4.95 4.95z"/></symbol><symbol viewBox="0 0 50.938 100" id="mobile"><path d="M43.1 0H7.838C3.51 0 0 3.508 0 7.836v84.327C0 96.49 3.51 100 7.837 100H43.1c4.33 0 7.838-3.51 7.838-7.837V7.836C50.938 3.508 47.428 0 43.1 0zM21.616 8.315h7.708c.576 0 1.043.467 1.043 1.044 0 .575-.467 1.042-1.043 1.042h-7.708c-.577 0-1.044-.467-1.044-1.043 0-.578.468-1.045 1.045-1.045zm-4.492-.4c.687 0 1.244.557 1.244 1.244 0 .686-.557 1.243-1.244 1.243-.687 0-1.244-.557-1.244-1.244 0-.688.557-1.245 1.243-1.245zm8.346 87.857c-2.706 0-4.9-2.192-4.9-4.897 0-2.706 2.194-4.898 4.9-4.898s4.896 2.192 4.896 4.898c0 2.705-2.192 4.897-4.897 4.897zM47.02 82.49H3.92V17.51h43.1v64.98z"/></symbol><symbol viewBox="-241 333 128 128" id="picasa"><title>Aperture</title><path fill="#80B23C" d="M-192 419l-35.4-61.4c-8.5 10.9-13.6 24.5-13.6 39.4 0 7.7 1.4 15.1 3.9 22h45.1z"/><path fill="#2A91A8" d="M-165.5 421h-70.9c8.2 20.2 26.3 35.2 48.3 39l22.6-39z"/><path fill="#4A46AA" d="M-150.4 399l-35.4 61.4c2.9.4 5.9.6 8.9.6 19.7 0 37.4-8.9 49.1-23l-22.6-39z"/><path fill="#DA3A35" d="M-162 375l35.4 61.4c8.5-10.9 13.6-24.5 13.6-39.4 0-7.7-1.4-15.1-3.9-22H-162z"/><path fill="#F16522" d="M-188.5 373h70.9c-8.2-20.2-26.3-35.2-48.3-39-.1 0-22.6 39-22.6 39z"/><path fill="#FCB400" d="M-203.6 395l35.4-61.4c-2.9-.4-5.9-.6-8.9-.6-19.7 0-37.4 8.9-49.1 23l22.6 39z"/></symbol><symbol viewBox="389.579 549.189 61.834 91.962" id="tablet"><path d="M447.273 549.19H393.72c-2.287 0-4.14 1.853-4.14 4.138v83.683c0 2.286 1.853 4.142 4.14 4.142h53.553c2.285 0 4.14-1.854 4.14-4.14v-83.684c0-2.285-1.855-4.14-4.14-4.14zm-26.796 4.125c.373 0 .675.302.675.675 0 .372-.303.674-.675.674s-.675-.302-.675-.674.302-.675.675-.675zm.01 85.91c-1.344 0-2.433-1.087-2.433-2.43s1.09-2.435 2.433-2.435c1.343 0 2.435 1.09 2.435 2.434s-1.09 2.432-2.435 2.432zm28.165-7.243c0 .127-.102.23-.23.23h-55.65c-.128 0-.23-.103-.23-.23v-73.68c0-.127.102-.23.23-.23h55.65c.128 0 .23.104.23.23v73.68z"/></symbol><symbol viewBox="0 0 92 75" id="twitter"><title>Twitter</title><path d="M92 8.85c-3.39 1.5-7.03 2.52-10.84 2.97 3.89-2.33 6.89-6.03 8.3-10.44-3.65 2.16-7.69 3.74-11.99 4.58C74.03 2.29 69.12 0 63.69 0 53.27 0 44.82 8.45 44.82 18.88c0 1.48.16 2.92.49 4.3-15.69-.79-29.6-8.3-38.91-19.72-1.62 2.78-2.55 6.03-2.55 9.49 0 6.54 3.33 12.32 8.39 15.71-3.09-.1-6-.95-8.55-2.36v.23c0 9.15 6.51 16.78 15.14 18.51-1.58.43-3.25.66-4.97.66-1.22 0-2.4-.11-3.55-.34 2.4 7.5 9.37 12.96 17.63 13.11-6.46 5.07-14.6 8.08-23.44 8.08-1.52 0-3.03-.09-4.5-.26 8.35 5.35 18.27 8.48 28.93 8.48 34.72 0 53.71-28.76 53.71-53.71 0-.81-.02-1.63-.06-2.44 3.69-2.66 6.89-5.98 9.42-9.77"/></symbol><symbol viewBox="0 0 123 123" id="wordpress"><title>WordPress</title><path d="M8.708 61.26c0 20.802 12.09 38.78 29.62 47.298l-25.07-68.686c-2.916 6.536-4.55 13.77-4.55 21.388zM96.74 58.608c0-6.495-2.333-10.993-4.334-14.494-2.664-4.33-5.16-7.995-5.16-12.324 0-4.83 3.663-9.328 8.824-9.328.233 0 .454.03.68.042C87.4 13.938 74.945 8.708 61.263 8.708c-18.36 0-34.513 9.42-43.91 23.688 1.233.037 2.395.063 3.382.063 5.497 0 14.006-.668 14.006-.668 2.833-.167 3.167 3.994.337 4.33 0 0-2.847.334-6.015.5L48.2 93.547l11.5-34.493-8.187-22.434c-2.83-.166-5.51-.5-5.51-.5-2.833-.167-2.5-4.497.33-4.33 0 0 8.68.667 13.844.667 5.496 0 14.006-.667 14.006-.667 2.835-.167 3.168 3.994.337 4.33 0 0-2.853.334-6.015.5l18.992 56.494 5.242-17.517c2.27-7.27 4-12.49 4-16.99z"/><path d="M62.184 65.857l-15.768 45.82c4.708 1.383 9.687 2.14 14.846 2.14 6.12 0 11.99-1.058 17.452-2.98-.14-.224-.27-.463-.374-.723L62.184 65.857zM107.376 36.046c.226 1.674.354 3.47.354 5.404 0 5.333-.996 11.328-3.996 18.824L87.68 106.687c15.625-9.11 26.134-26.038 26.134-45.426 0-9.136-2.333-17.728-6.438-25.214z"/><path d="M61.262 0C27.482 0 0 27.48 0 61.26c0 33.783 27.483 61.263 61.262 61.263 33.778 0 61.265-27.48 61.265-61.263C122.527 27.48 95.04 0 61.262 0zm0 119.715c-32.23 0-58.453-26.223-58.453-58.455 0-32.23 26.22-58.45 58.452-58.45 32.23 0 58.45 26.22 58.45 58.45 0 32.232-26.22 58.455-58.45 58.455z"/></symbol></svg>