<svg xmlns="http://www.w3.org/2000/svg" baseProfile="tiny" width="61.834" height="91.962" viewBox="389.579 549.189 61.834 91.962"><path d="M447.273 549.19H393.72c-2.287 0-4.14 1.853-4.14 4.138v83.683c0 2.286 1.853 4.142 4.14 4.142h53.553c2.285 0 4.14-1.854 4.14-4.14v-83.684c0-2.285-1.855-4.14-4.14-4.14zm-26.796 4.125c.373 0 .675.302.675.675 0 .372-.303.674-.675.674s-.675-.302-.675-.674.302-.675.675-.675zm.01 85.91c-1.344 0-2.433-1.087-2.433-2.43s1.09-2.435 2.433-2.435c1.343 0 2.435 1.09 2.435 2.434s-1.09 2.432-2.435 2.432zm28.165-7.243c0 .127-.102.23-.23.23h-55.65c-.128 0-.23-.103-.23-.23v-73.68c0-.127.102-.23.23-.23h55.65c.128 0 .23.104.23.23v73.68z"/></svg>