<svg width="123" height="123" viewBox="0 0 123 123" xmlns="http://www.w3.org/2000/svg"><title>WordPress</title><path d="M8.708 61.26c0 20.802 12.09 38.78 29.62 47.298l-25.07-68.686c-2.916 6.536-4.55 13.77-4.55 21.388zM96.74 58.608c0-6.495-2.333-10.993-4.334-14.494-2.664-4.33-5.16-7.995-5.16-12.324 0-4.83 3.663-9.328 8.824-9.328.233 0 .454.03.68.042C87.4 13.938 74.945 8.708 61.263 8.708c-18.36 0-34.513 9.42-43.91 23.688 1.233.037 2.395.063 3.382.063 5.497 0 14.006-.668 14.006-.668 2.833-.167 3.167 3.994.337 4.33 0 0-2.847.334-6.015.5L48.2 93.547l11.5-34.493-8.187-22.434c-2.83-.166-5.51-.5-5.51-.5-2.833-.167-2.5-4.497.33-4.33 0 0 8.68.667 13.844.667 5.496 0 14.006-.667 14.006-.667 2.835-.167 3.168 3.994.337 4.33 0 0-2.853.334-6.015.5l18.992 56.494 5.242-17.517c2.27-7.27 4-12.49 4-16.99z"/><path d="M62.184 65.857l-15.768 45.82c4.708 1.383 9.687 2.14 14.846 2.14 6.12 0 11.99-1.058 17.452-2.98-.14-.224-.27-.463-.374-.723L62.184 65.857zM107.376 36.046c.226 1.674.354 3.47.354 5.404 0 5.333-.996 11.328-3.996 18.824L87.68 106.687c15.625-9.11 26.134-26.038 26.134-45.426 0-9.136-2.333-17.728-6.438-25.214z"/><path d="M61.262 0C27.482 0 0 27.48 0 61.26c0 33.783 27.483 61.263 61.262 61.263 33.778 0 61.265-27.48 61.265-61.263C122.527 27.48 95.04 0 61.262 0zm0 119.715c-32.23 0-58.453-26.223-58.453-58.455 0-32.23 26.22-58.45 58.452-58.45 32.23 0 58.45 26.22 58.45 58.45 0 32.232-26.22 58.455-58.45 58.455z"/></svg>