<svg xmlns="http://www.w3.org/2000/svg" xmlns:xlink="http://www.w3.org/1999/xlink"><symbol viewBox="0 0 24 24" id="activity" xmlns="http://www.w3.org/2000/svg"><polyline points="22 9.9 17.6 9.9 14.3 19.8 7.7 0 4.4 9.9 0 9.9" class="aaicon-stroke" fill="none" stroke-width="2" transform="translate(1 2)" stroke-linecap="round" stroke-linejoin="round"/></symbol><symbol viewBox="0 0 24 24" id="add-circle" xmlns="http://www.w3.org/2000/svg"><g class="abicon-stroke" fill="none" fill-rule="evenodd" stroke-width="2" transform="translate(1 1)" stroke-linecap="round" stroke-linejoin="round"><circle cx="11" cy="11" r="11"/><path d="M11 6.6v8.8M6.6 11h8.8"/></g></symbol><symbol viewBox="0 0 24 24" id="alert-triangle" xmlns="http://www.w3.org/2000/svg"><g class="acicon-stroke" stroke-width="2" fill="none" fill-rule="evenodd" transform="translate(1 3)"><path d="M9.29 1.86L.82 16a2 2 0 0 0 1.71 3h16.94a2 2 0 0 0 1.71-3L12.71 1.86a2 2 0 0 0-3.42 0zM11 7v4" stroke-linecap="round" stroke-linejoin="round"/><circle class="acicon-fill" fill="#000" cx="11" cy="15" r=".5"/></g></symbol><symbol viewBox="0 0 24 24" id="announce" xmlns="http://www.w3.org/2000/svg"><g class="adicon-stroke" fill="none" fill-rule="evenodd" stroke-width="2" transform="translate(1 3)"><path d="M6.6 11c0 2.2 0 5.133 3.667 6.6M19.8 9.533a2.2 2.2 0 1 0 0-4.4"/><path d="M7.333 11H2.2A2.2 2.2 0 0 1 0 8.8V5.867a2.2 2.2 0 0 1 2.2-2.2h6.6A20.167 20.167 0 0 0 19.8 0v14.667A18.48 18.48 0 0 0 8.8 11H7.333z"/></g></symbol><symbol viewBox="0 0 24 24" id="arrow-down" xmlns="http://www.w3.org/2000/svg"><g class="aeicon-stroke" fill="none" fill-rule="evenodd" stroke-width="2" transform="translate(4 1)" stroke-linecap="round" stroke-linejoin="round"><path d="M8.25 0v22"/><polyline points="16.5 13.75 8.25 22 0 13.75"/></g></symbol><symbol viewBox="0 0 24 24" id="arrow-left" xmlns="http://www.w3.org/2000/svg"><g class="aficon-stroke" fill="none" fill-rule="evenodd" stroke-width="2" transform="translate(1 4)" stroke-linecap="round" stroke-linejoin="round"><path d="M22 8.25H0"/><polyline points="8.25 16.5 0 8.25 8.25 0"/></g></symbol><symbol viewBox="0 0 24 24" id="arrow-right" xmlns="http://www.w3.org/2000/svg"><g class="agicon-stroke" fill="none" fill-rule="evenodd" stroke-width="2" transform="translate(1 4)" stroke-linecap="round" stroke-linejoin="round"><path d="M0 8.25h22"/><polyline points="13.75 0 22 8.25 13.75 16.5"/></g></symbol><symbol viewBox="0 0 24 24" id="arrow-up" xmlns="http://www.w3.org/2000/svg"><g class="ahicon-stroke" fill="none" fill-rule="evenodd" stroke-width="2" transform="translate(4 1)" stroke-linecap="round" stroke-linejoin="round"><path d="M8.25 22V0"/><polyline points="0 8.25 8.25 0 16.5 8.25"/></g></symbol><symbol viewBox="0 0 24 24" id="asterisk" xmlns="http://www.w3.org/2000/svg"><path d="M2 13.46h22M7.5 22.92L18.5 4m0 18.92L7.5 4" class="aiicon-stroke" fill="none" fill-rule="evenodd" stroke-width="2" stroke-linecap="round" stroke-linejoin="round"/></symbol><symbol viewBox="0 0 24 24" id="attachment" xmlns="http://www.w3.org/2000/svg"><path d="M22.366 11.529l-9.628 9.627a6.29 6.29 0 1 1-8.894-8.894l9.627-9.628a4.193 4.193 0 0 1 5.93 5.93L9.763 18.19a2.096 2.096 0 1 1-2.965-2.964l8.894-8.884" class="ajicon-stroke" fill="none" fill-rule="evenodd" stroke-linecap="round" stroke-width="2" stroke-linejoin="round"/></symbol><symbol viewBox="0 0 24 24" id="calendar" xmlns="http://www.w3.org/2000/svg"><g class="akicon-stroke" fill="none" fill-rule="evenodd" stroke-width="2" transform="translate(2 1)" stroke-linecap="round" stroke-linejoin="round"><rect width="19.8" height="19.8" y="2.2" rx="2"/><path d="M14.3 0v4.4M5.5 0v4.4M0 8.8h19.8"/></g></symbol><symbol viewBox="0 0 24 24" id="camera" xmlns="http://www.w3.org/2000/svg"><g class="alicon-stroke" fill="none" fill-rule="evenodd" stroke-width="2" transform="translate(1 3)" stroke-linecap="round" stroke-linejoin="round"><path d="M22 16a2 2 0 0 1-2 2H2a2 2 0 0 1-2-2V5a2 2 0 0 1 2-2h4l2-3h6l2 3h4a2 2 0 0 1 2 2v11z"/><circle cx="11" cy="10" r="4"/></g></symbol><symbol viewBox="0 0 24 24" id="camera-off" xmlns="http://www.w3.org/2000/svg"><path d="M1 1l22 22m-2-2H3a2 2 0 0 1-2-2V8a2 2 0 0 1 2-2h3m3-3h6l2 3h4a2 2 0 0 1 2 2v9.34m-7.72-2.06a4 4 0 1 1-5.56-5.56" class="amicon-stroke" fill="none" fill-rule="evenodd" stroke-width="2" stroke-linecap="round" stroke-linejoin="round"/></symbol><symbol viewBox="0 0 24 24" id="caret-down" xmlns="http://www.w3.org/2000/svg"><polyline class="anicon-stroke" fill="none" stroke-width="2" points="0 0 11 11 22 0" transform="translate(1 7)" stroke-linecap="round" stroke-linejoin="round"/></symbol><symbol viewBox="0 0 24 24" id="caret-left" xmlns="http://www.w3.org/2000/svg"><polyline class="aoicon-stroke" fill="none" stroke-width="2" points="11 22 0 11 11 0" transform="translate(6 1)" stroke-linecap="round" stroke-linejoin="round"/></symbol><symbol viewBox="0 0 24 24" id="caret-right" xmlns="http://www.w3.org/2000/svg"><polyline class="apicon-stroke" fill="none" stroke-width="2" points="0 22 11 11 0 0" transform="translate(7 1)" stroke-linecap="round" stroke-linejoin="round"/></symbol><symbol viewBox="0 0 24 24" id="caret-up" xmlns="http://www.w3.org/2000/svg"><polyline class="aqicon-stroke" fill="none" stroke-width="2" points="22 11 11 0 0 11" transform="translate(1 7)" stroke-linecap="round" stroke-linejoin="round"/></symbol><symbol viewBox="0 0 24 24" id="chat" xmlns="http://www.w3.org/2000/svg"><path class="aricon-stroke" fill="none" stroke-width="2" d="M2.1 21.8l6.893-2.53c.987.221 1.996.332 3.007.33 6.087 0 11-3.923 11-8.8C23 5.923 18.087 2 12 2S1 5.923 1 10.8c0 2.457 1.283 4.693 3.337 6.307L2.1 21.8z" stroke-linecap="round"/></symbol><symbol viewBox="0 0 24 24" id="chat-group" xmlns="http://www.w3.org/2000/svg"><g class="asicon-stroke" fill="none" fill-rule="evenodd" stroke-width="2" transform="translate(1 2)" stroke-linecap="round"><path d="M17.453 8.25c2.64.587 4.547 2.53 4.547 4.803a4.547 4.547 0 0 1-1.87 3.557l1.137 2.823-3.777-1.576a7.7 7.7 0 0 1-1.723.183c-3.007 0-5.537-1.723-6.124-3.997"/><path d="M.733 16.133l5.647-2.31c.794.176 1.606.262 2.42.257 4.877 0 8.8-3.153 8.8-7.04S13.677 0 8.8 0C3.923 0 0 3.153 0 7.04c0 1.98 1.027 3.777 2.677 5.06L.733 16.133z"/></g></symbol><symbol viewBox="0 0 24 24" id="check" xmlns="http://www.w3.org/2000/svg"><polyline points="22 0 6.875 15.125 0 8.25" class="aticon-stroke" fill="none" stroke-width="2" transform="translate(1 4)" stroke-linecap="round" stroke-linejoin="round"/></symbol><symbol viewBox="0 0 24 24" id="clock" xmlns="http://www.w3.org/2000/svg"><g class="auicon-stroke" fill="none" fill-rule="evenodd" stroke-width="2" transform="translate(1 1)" stroke-linecap="round" stroke-linejoin="round"><circle cx="11" cy="11" r="11"/><polyline points="11 4.4 11 11 14.3 14.3"/></g></symbol><symbol viewBox="0 0 24 24" id="close" xmlns="http://www.w3.org/2000/svg"><path d="M23 1L1 23M1 1l22 22" class="avicon-stroke" fill="none" fill-rule="evenodd" stroke-width="2" stroke-linecap="round" stroke-linejoin="round"/></symbol><symbol viewBox="0 0 24 24" id="codepen" xmlns="http://www.w3.org/2000/svg"><path class="awicon-fill" d="M23.618 8.018V7.91v-.054V7.8v-.055s0-.054-.054-.054c0 0 0-.055-.055-.055l-.054-.054s0-.055-.055-.055l-.055-.054-.054-.055-.055-.054s-.054 0-.054-.055L12.382.164c-.327-.219-.764-.219-1.146 0l-10.8 7.2s-.054 0-.054.054l-.055.055s-.054 0-.054.054l-.055.055s0 .054-.054.054l-.055.055s0 .054-.054.054c0 0 0 .055-.055.055v8.073s0 .054.055.054c0 0 0 .055.054.055l.055.054s0 .055.054.055l.055.054.054.055.055.055s.054 0 .054.054l10.8 7.146c.164.109.382.163.546.163.163 0 .382-.054.545-.163l10.8-7.2s.055 0 .055-.055l.054-.055.055-.054.054-.055s0-.054.055-.054l.055-.055s0-.054.054-.054c0 0 0-.055.055-.055v-.054-.055-.054-.11-.054-7.255c.054-.054.054-.109.054-.218 0 .055 0 .055 0 0zm-11.782 6.218l-3.6-2.4 3.6-2.4 3.6 2.4-3.6 2.4zm-1.036-6.6l-4.418 2.946-3.546-2.4L10.8 2.89v4.745zm-6.218 4.2l-2.564 1.691v-3.382l2.564 1.691zm1.8 1.2l4.418 2.946v4.745l-7.964-5.29 3.546-2.4zm6.436 2.946l4.418-2.946 3.546 2.4-7.964 5.291v-4.745zm6.273-4.146l2.564-1.69v3.381l-2.564-1.69zm-1.855-1.254l-4.418-2.946V2.891l7.964 5.29-3.546 2.4z"/></symbol><symbol viewBox="0 0 24 24" id="cog" xmlns="http://www.w3.org/2000/svg"><g class="axicon-stroke" fill="none" fill-rule="evenodd" stroke-width="2" transform="translate(1 1)"><circle cx="11.355" cy="10.645" r="3.548"/><path d="M22 13.484l-2.413-1.42a8.374 8.374 0 0 0 0-3.051l2.2-1.207-2.839-4.896-2.2 1.277a8.516 8.516 0 0 0-2.625-1.49V0H8.445v2.626a8.516 8.516 0 0 0-2.626 1.49L3.55 2.84.708 7.806l2.13 1.207a8.232 8.232 0 0 0 0 3.122L.497 13.484l2.838 4.897 2.342-1.278a8.516 8.516 0 0 0 2.697 1.562v2.625h5.678v-2.625a8.516 8.516 0 0 0 2.767-1.633l2.342 1.42L22 13.484z"/></g></symbol><symbol viewBox="0 0 24 24" id="dots-horizontal" xmlns="http://www.w3.org/2000/svg"><g class="ayicon-stroke" fill="none" fill-rule="evenodd" stroke-width="2" transform="translate(1 10)" stroke-linecap="round" stroke-linejoin="round"><circle cx="2.2" cy="2.2" r="2.2"/><circle cx="19.8" cy="2.2" r="2.2"/><circle cx="11" cy="2.2" r="2.2"/></g></symbol><symbol viewBox="0 0 24 24" id="dots-vertical" xmlns="http://www.w3.org/2000/svg"><g class="azicon-stroke" fill="none" fill-rule="evenodd" stroke-width="2" transform="translate(1 10)" stroke-linecap="round" stroke-linejoin="round"><circle cx="11" cy="10.8" r="2.2"/><circle cx="11" cy="-6.8" r="2.2"/><circle cx="11" cy="2" r="2.2"/></g></symbol><symbol viewBox="0 0 24 24" id="download" xmlns="http://www.w3.org/2000/svg"><g class="baicon-stroke" fill="none" fill-rule="evenodd" stroke-width="2" transform="translate(1 3)" stroke-linecap="round" stroke-linejoin="round"><polyline points="7.333 13.75 11 17.417 14.667 13.75"/><path d="M11 9.167v8.25m8.14-2.668a4.583 4.583 0 0 0-2.64-8.332h-1.155A7.333 7.333 0 1 0 2.75 13.099"/></g></symbol><symbol id="dribbble" viewBox="0 0 24 24" xmlns="http://www.w3.org/2000/svg"><path class="bbicon-fill" d="M12 24C5.4 24 0 18.6 0 12S5.4 0 12 0s12 5.4 12 12-5.4 12-12 12zm10.1-10.4c-.4-.1-3.2-1-6.4-.4 1.3 3.7 1.9 6.7 2 7.3 2.3-1.5 4-4 4.4-6.9zM16 21.4c-.2-.9-.7-4-2.2-7.8h-.1c-5.8 2-7.8 6-8 6.4 1.7 1.4 3.9 2.2 6.3 2.2 1.4.1 2.8-.2 4-.8zM4.4 18.9c.2-.4 3-5 8.3-6.8.1 0 .3-.1.4-.1-.3-.6-.5-1.2-.8-1.7-5.1 1.5-10.1 1.5-10.5 1.5v.3c-.1 2.5.9 5 2.6 6.8zM2 9.9c.5 0 4.7 0 9.5-1.2-1.7-3-3.5-5.6-3.8-5.9C4.8 4.1 2.6 6.7 2 9.9zM9.6 2c.3.4 2.1 2.9 3.8 6 3.6-1.4 5.2-3.4 5.4-3.7C17 2.8 14.6 1.8 12 1.8c-.8 0-1.6.1-2.4.2zm10.3 3.5c-.2.3-1.9 2.5-5.7 4 .2.5.5 1 .7 1.5.1.2.1.4.2.5 3.4-.4 6.8.3 7.1.3 0-2.3-.9-4.5-2.3-6.3z"/></symbol><symbol viewBox="0 0 24 24" id="email" xmlns="http://www.w3.org/2000/svg"><g class="bcicon-stroke" fill="none" fill-rule="evenodd" stroke-width="2" transform="translate(1 3)" stroke-linecap="round" stroke-linejoin="round"><path d="M2.2 0h17.6c1.21 0 2.2.99 2.2 2.2v13.2c0 1.21-.99 2.2-2.2 2.2H2.2c-1.21 0-2.2-.99-2.2-2.2V2.2C0 .99.99 0 2.2 0z"/><polyline points="22 2.2 11 9.9 0 2.2"/></g></symbol><symbol id="facebook" viewBox="0 0 24 24" xmlns="http://www.w3.org/2000/svg"><path class="bdicon-fill" d="M14.2 4.5H18V0h-3.8C11.4 0 9 2.4 9 5.2v2.2H6V12h3v12h4.5V12h3.8l.7-4.5h-4.5V5.2c0-.4.3-.7.7-.7z"/></symbol><symbol viewBox="0 0 24 24" id="file" xmlns="http://www.w3.org/2000/svg"><g class="beicon-stroke" fill="none" fill-rule="evenodd" stroke-width="2" transform="translate(3 1)" stroke-linecap="round" stroke-linejoin="round"><path d="M11 0H2.2A2.2 2.2 0 0 0 0 2.2v17.6A2.2 2.2 0 0 0 2.2 22h13.2a2.2 2.2 0 0 0 2.2-2.2V6.6L11 0z"/><polyline points="11 0 11 6.6 17.6 6.6"/><path d="M13.2 12.1H4.4m8.8 4.4H4.4"/><polyline points="6.6 7.7 5.5 7.7 4.4 7.7"/></g></symbol><symbol id="github" viewBox="0 0 24 24" xmlns="http://www.w3.org/2000/svg"><path class="bficon-fill" d="M16.4 24c-.6 0-1-.5-1-1v-4c.1-.8-.2-1.5-.7-2-.3-.3-.4-.7-.2-1.1.1-.4.5-.6.9-.7 3-.3 5.8-1.3 5.8-6.3 0-1.2-.5-2.3-1.3-3.2-.3-.3-.4-.7-.2-1.1.2-.8.3-1.6.1-2.5-.5.1-1.4.4-2.8 1.3-.3.2-.6.2-.9.1-2.2-.5-4.5-.5-6.7.1-.3.1-.6 0-.9-.1-1.3-.9-2.2-1.2-2.7-1.4-.2.9-.2 1.7.1 2.5.2.4.1.8-.2 1.1-.8.9-1.3 2-1.3 3.2 0 4.9 2.8 5.9 5.8 6.3.4 0 .7.3.9.7.1.4 0 .8-.2 1.1-.5.5-.7 1.2-.7 1.9V23c0 .6-.5 1-1 1-.6 0-1-.5-1-1v-1.8c-3.1.5-4.5-1.2-5.4-2.4-.4-.5-.8-1-1.1-1-.7-.2-1-.8-.9-1.3.1-.6.7-.9 1.3-.8 1 .3 1.7 1.1 2.2 1.8.9 1.1 1.6 2 3.8 1.6V19c0-.6.1-1.3.3-1.9-2.9-.7-6-2.5-6-8.1 0-1.5.5-3 1.4-4.2-.4-1.4-.3-2.8.3-4.1.1-.3.4-.5.7-.6.3-.1 1.8-.4 4.5 1.4 2.3-.5 4.7-.5 6.9 0C19-.3 20.4 0 20.8.1c.3.1.5.3.7.6.5 1.3.6 2.7.3 4.1.9 1.2 1.4 2.6 1.4 4.1 0 5.9-3.6 7.6-6 8.1.2.6.4 1.3.3 2v4c0 .5-.5 1-1.1 1z"/></symbol><symbol id="google" viewBox="0 0 24 24" xmlns="http://www.w3.org/2000/svg"><g class="bgicon-fill"><path d="M7.6 10.9v2.6H12c-.2 1.1-1.3 3.3-4.3 3.3C5.1 16.8 3 14.6 3 12s2-4.8 4.6-4.8c1.5 0 2.5.6 3 1.2l2.1-2c-1.3-1.2-3.1-2-5.1-2C3.4 4.4 0 7.8 0 12s3.4 7.6 7.6 7.6c4.4 0 7.3-3.1 7.3-7.5 0-.5-.1-.9-.1-1.3H7.6v.1z"/><path d="M24 10.9h-2.2V8.6h-2.2v2.2h-2.2V13h2.2v2.2h2.2V13H24v-2.1z"/></g></symbol><symbol viewBox="0 0 24 24" id="heart" xmlns="http://www.w3.org/2000/svg"><path class="bhicon-stroke" fill="none" stroke-width="2" d="M20.84 4.61a5.5 5.5 0 0 0-7.78 0L12 5.67l-1.06-1.06a5.501 5.501 0 0 0-7.78 7.78l1.06 1.06L12 21.23l7.78-7.78 1.06-1.06a5.5 5.5 0 0 0 0-7.78z" stroke-linecap="round" stroke-linejoin="round"/></symbol><symbol viewBox="0 0 24 24" id="help" xmlns="http://www.w3.org/2000/svg"><g class="biicon-stroke" fill="none" fill-rule="evenodd" stroke-width="2" transform="translate(1 1)" stroke-linecap="round" stroke-linejoin="round"><circle cx="11" cy="11" r="11"/><circle cx="11" cy="11" r="4.4"/><path d="M3.223 3.223l4.664 4.664m6.226 6.226l4.664 4.664m-4.664-10.89l4.664-4.664m-4.664 4.664l3.883-3.883M3.223 18.777l4.664-4.664"/></g></symbol><symbol viewBox="0 0 24 24" id="house" xmlns="http://www.w3.org/2000/svg"><g class="bjicon-stroke" fill="none" fill-rule="evenodd" stroke-width="2" transform="translate(1 1)" stroke-linecap="round" stroke-linejoin="round"><polyline points="0 11 11 0 22 11"/><polyline points="2.75 8.36 2.75 22 19.25 22 19.25 8.36"/><polyline points="8.25 22 8.25 13.75 13.75 13.75"/></g></symbol><symbol viewBox="0 0 24 24" id="inbox" xmlns="http://www.w3.org/2000/svg"><g class="bkicon-stroke" fill="none" fill-rule="evenodd" stroke-width="2" transform="translate(1 3)" stroke-linecap="round" stroke-linejoin="round"><polyline points="22 9.9 15.4 9.9 13.2 13.2 8.8 13.2 6.6 9.9 0 9.9"/><path d="M3.817 1.309L0 9.9v5.5a2.2 2.2 0 0 0 2.2 2.2h17.6a2.2 2.2 0 0 0 2.2-2.2V9.9l-3.817-8.591A2.2 2.2 0 0 0 16.17 0H5.83a2.2 2.2 0 0 0-2.013 1.309z"/></g></symbol><symbol viewBox="0 0 24 24" id="info-circle" xmlns="http://www.w3.org/2000/svg"><g class="blicon-stroke" stroke-width="2" fill="none" fill-rule="evenodd" transform="translate(1 1)" stroke-linecap="round" stroke-linejoin="round"><circle cx="11" cy="11" r="11"/><path d="M11 15.4V11"/><circle class="blicon-fill" cx="11" cy="6.6" r=".5" fill="#000"/></g></symbol><symbol id="instagram" viewBox="0 0 24 24" xmlns="http://www.w3.org/2000/svg"><g class="bmicon-fill"><path d="M12 0C8.7 0 8.3 0 7.1.1c-1.3 0-2.2.2-3 .5C3.4.9 2.7 1.3 2 2S.9 3.4.6 4.1c-.3.8-.5 1.7-.5 3C0 8.3 0 8.7 0 12c0 3.3 0 3.7.1 4.9.1 1.3.3 2.1.6 2.9.2.8.6 1.5 1.3 2.2.7.7 1.3 1.1 2.1 1.4.8.3 1.6.5 2.9.6h5c3.3 0 3.7 0 4.9-.1 1.3-.1 2.1-.3 2.9-.6.8-.3 1.5-.7 2.1-1.4.7-.7 1.1-1.3 1.4-2.1.3-.8.5-1.6.6-2.9.1-1.2.1-1.6.1-4.9 0-3.3 0-3.7-.1-4.9-.1-1.3-.3-2.1-.6-2.9-.2-.8-.6-1.5-1.3-2.2S20.7.9 19.9.6C19.1.3 18.3.1 17 0h-5zm0 2.2c3.2 0 3.6 0 4.8.1 1.2.1 1.8.2 2.2.4.6.2 1 .5 1.4.9.4.4.7.8.9 1.4.2.4.4 1.1.4 2.2.1 1.3.1 1.6.1 4.8 0 3.2 0 3.6-.1 4.8-.1 1.2-.2 1.8-.4 2.2-.2.6-.5 1-.9 1.4-.4.4-.8.7-1.4.9-.4.2-1.1.4-2.2.4-1.3.1-1.6.1-4.8.1s-3.6 0-4.8-.1c-1.2-.1-1.8-.2-2.2-.4-.6-.2-1-.5-1.4-.9-.4-.4-.7-.8-.9-1.4-.2-.4-.4-1.1-.4-2.2-.1-1.3-.1-1.6-.1-4.8 0-3.2 0-3.6.1-4.8 0-1.2.2-1.9.3-2.3.2-.6.5-1 .9-1.4.5-.4.9-.6 1.4-.9.4-.1 1.1-.3 2.3-.4H12z"/><path d="M12 16c-2.2 0-4-1.8-4-4s1.8-4 4-4 4 1.8 4 4-1.8 4-4 4m0-10.2c-3.4 0-6.2 2.8-6.2 6.2 0 3.4 2.8 6.2 6.2 6.2s6.2-2.8 6.2-6.2c0-3.4-2.8-6.2-6.2-6.2"/><path d="M19.8 5.6c0 .8-.6 1.4-1.4 1.4-.8 0-1.4-.6-1.4-1.4 0-.8.6-1.4 1.4-1.4.8 0 1.4.6 1.4 1.4"/></g></symbol><symbol viewBox="0 0 24 24" id="list" xmlns="http://www.w3.org/2000/svg"><path d="M1 5.4h22M1 12h13.2M1 18.6h18" class="bnicon-stroke" fill="none" fill-rule="evenodd" stroke-width="2" stroke-linecap="round"/></symbol><symbol viewBox="0 0 24 24" id="lock" xmlns="http://www.w3.org/2000/svg"><g class="boicon-stroke" fill="none" fill-rule="evenodd" stroke-width="2" transform="translate(5 1)"><path d="M2.567 9.093V4.767a4.767 4.767 0 1 1 9.533 0v4.326m-4.767 3.74V16.5"/><circle cx="7.333" cy="14.667" r="7.333"/></g></symbol><symbol id="logo" viewBox="0 0 24 24" xmlns="http://www.w3.org/2000/svg"><polygon points="17.2,10.4 14.9,8 12.1,10.8 14.5,13.1 6.6,21 9.3,23.8 20,13.1"/><polygon points="9.3,16 12.1,13.2 9.7,10.9 17.6,3 14.9,0.2 4.2,10.9 7,13.6"/></symbol><symbol viewBox="0 0 24 24" id="map-pin" xmlns="http://www.w3.org/2000/svg"><g class="bqicon-stroke" fill="none" fill-rule="evenodd" stroke-width="2" transform="translate(3 1)" stroke-linecap="round" stroke-linejoin="round"><path d="M18 9c0 7-9 13-9 13S0 16 0 9a9 9 0 0 1 18 0z"/><circle cx="9" cy="9" r="3"/></g></symbol><symbol viewBox="0 0 24 24" id="question-circle" xmlns="http://www.w3.org/2000/svg"><g stroke-width="2" class="bricon-stroke" fill="none" fill-rule="evenodd" transform="translate(1 1)" stroke-linecap="round" stroke-linejoin="round"><path d="M7.799 7.7a3.3 3.3 0 0 1 6.413 1.1c0 2.2-3.3 3.3-3.3 3.3"/><circle cx="11" cy="11" r="11"/><circle cx="11" cy="16.5" r=".5" class="bricon-fill"/></g></symbol><symbol viewBox="0 0 24 24" id="search" xmlns="http://www.w3.org/2000/svg"><g class="bsicon-stroke" fill="none" fill-rule="evenodd" stroke-width="2" transform="translate(1 1)" stroke-linecap="round" stroke-linejoin="round"><circle cx="9.167" cy="9.167" r="9.167"/><path d="M22 22l-6.356-6.356"/></g></symbol><symbol viewBox="0 0 24 24" id="send" xmlns="http://www.w3.org/2000/svg"><g class="bticon-stroke" stroke-width="2" fill="none" fill-rule="evenodd" transform="translate(3 2)"><polyline points="7.80357143 11.1964286 7.80357143 18.3214286 11.2982143 13.3678571"/><path d="M0 8.143L19 0l-3.054 16.286-8.142-5.09L0 8.143zM19 0L7.804 11.196 19 0z"/></g></symbol><symbol viewBox="0 0 24 24" id="settings" xmlns="http://www.w3.org/2000/svg"><g class="buicon-stroke" fill="none" fill-rule="evenodd" stroke-width="2" transform="translate(1 1)"><path d="M20.533 2.2H4.4M8.8 11H1.467m19.066 0H13.2m4.4 8.8H1.467"/><circle cx="2.2" cy="2.2" r="2.2"/><circle cx="19.8" cy="19.8" r="2.2"/><circle cx="11" cy="11" r="2.2"/></g></symbol><symbol viewBox="0 0 24 24" id="share" xmlns="http://www.w3.org/2000/svg"><g class="bvicon-stroke" fill="none" fill-rule="evenodd" stroke-width="2" transform="translate(3 1)" stroke-linecap="round" stroke-linejoin="round"><path d="M0 11v8.8A2.2 2.2 0 0 0 2.2 22h13.2a2.2 2.2 0 0 0 2.2-2.2V11"/><polyline points="13.2 4.4 8.8 0 4.4 4.4"/><path d="M8.8 0v14.3"/></g></symbol><symbol viewBox="0 0 24 24" id="star" xmlns="http://www.w3.org/2000/svg"><polygon class="bwicon-stroke" fill="none" stroke-width="2" points="11 0 14.399 6.886 22 7.997 16.5 13.354 17.798 20.922 11 17.347 4.202 20.922 5.5 13.354 0 7.997 7.601 6.886" transform="translate(1 1)" stroke-linecap="round" stroke-linejoin="round"/></symbol><symbol viewBox="0 0 24 24" id="subtract-circle" xmlns="http://www.w3.org/2000/svg"><g class="bxicon-stroke" fill="none" fill-rule="evenodd" stroke-width="2" transform="translate(1 1)" stroke-linecap="round" stroke-linejoin="round"><circle cx="11" cy="11" r="11"/><path d="M6.6 11h8.8"/></g></symbol><symbol viewBox="0 0 24 24" id="trash" xmlns="http://www.w3.org/2000/svg"><g class="byicon-stroke" fill="none" fill-rule="evenodd" stroke-width="2" transform="translate(2 1)" stroke-linecap="round" stroke-linejoin="round"><polyline points="0 4.4 2.2 4.4 19.8 4.4"/><path d="M17.6 4.4v15.4a2.2 2.2 0 0 1-2.2 2.2h-11a2.2 2.2 0 0 1-2.2-2.2V4.4m3.3 0V2.2A2.2 2.2 0 0 1 7.7 0h4.4a2.2 2.2 0 0 1 2.2 2.2v2.2M7.7 9.9v6.6m4.4-6.6v6.6"/></g></symbol><symbol id="twitter" viewBox="0 0 24 24" xmlns="http://www.w3.org/2000/svg"><path class="bzicon-fill" d="M24 4.6c-.9.4-1.8.7-2.8.8 1-.6 1.8-1.6 2.2-2.7-1 .6-2 1-3.1 1.2-.9-1-2.2-1.6-3.6-1.6-2.7 0-4.9 2.2-4.9 4.9 0 .4 0 .8.1 1.1-4.2-.2-7.8-2.2-10.2-5.2-.4.8-.7 1.6-.7 2.5 0 1.7.9 3.2 2.2 4.1-.8 0-1.6-.2-2.2-.6v.1c0 2.4 1.7 4.4 4 4.8-.4.1-.8.2-1.3.2-.3 0-.6 0-.9-.1.6 2 2.4 3.4 4.6 3.4-1.7 1.3-3.8 2.1-6.1 2.1-.4 0-.8 0-1.2-.1 2.2 1.4 4.8 2.2 7.5 2.2 9.1 0 14-7.5 14-14v-.6c.9-.7 1.7-1.6 2.4-2.5z"/></symbol><symbol viewBox="0 0 24 24" id="unlock" xmlns="http://www.w3.org/2000/svg"><g class="caicon-stroke" fill="none" fill-rule="evenodd" stroke-width="2" transform="translate(5 1)"><path d="M2.567 9.093V4.767a4.767 4.767 0 1 1 9.533 0m-4.767 8.066V16.5"/><circle cx="7.333" cy="14.667" r="7.333"/></g></symbol><symbol viewBox="0 0 24 24" id="upload" xmlns="http://www.w3.org/2000/svg"><g class="cbicon-stroke" fill="none" fill-rule="evenodd" stroke-width="2" transform="translate(1 3)" stroke-linecap="round" stroke-linejoin="round"><polyline points="15.304 12.435 11.478 8.609 7.652 12.435"/><path d="M11.478 8.609v8.608m8.025-2.496a4.783 4.783 0 0 0-2.286-8.982h-1.205A7.652 7.652 0 1 0 2.87 12.722"/><polyline points="15.304 12.435 11.478 8.609 7.652 12.435"/></g></symbol><symbol viewBox="0 0 24 24" id="user" xmlns="http://www.w3.org/2000/svg"><path class="ccicon-stroke" fill="none" stroke-width="2" d="M18.745 19.326c-3.63-.697-3.813-1.833-3.813-2.566v-.44a6.93 6.93 0 0 0 2.09-3.227h.037c1.1 0 1.393-2.31 1.393-2.676 0-.367.037-1.723-1.1-1.723 2.347-6.6-4.07-9.24-8.91-5.867-1.979 0-2.162 2.933-1.43 5.867-1.136 0-1.099 1.393-1.099 1.723 0 .33.257 2.676 1.393 2.676.367 1.32.844 2.53 1.723 3.3v.44c0 .733.184 1.833-3.483 2.493C1.88 19.986 1 23.36 1 23.36h21.998a5.353 5.353 0 0 0-4.253-4.033z" stroke-linecap="round"/></symbol><symbol viewBox="0 0 24 24" id="user-group" xmlns="http://www.w3.org/2000/svg"><g class="cdicon-stroke" fill="none" fill-rule="evenodd" stroke-width="2" transform="translate(1 2)" stroke-linecap="round"><path d="M9.313 3.007c.33-1.21 1.174-2.714 3.3-2.714 0 0 5.867-1.87 5.867 4.107 0 5.023 1.137 5.573 2.347 6.783a20.753 20.753 0 0 1-4.694.55v.587c0 .587-.11 1.76 2.824 2.347C21.89 15.253 22 17.6 22 17.6h-7.7"/><path d="M13.237 17.307c-2.934-.404-2.934-1.467-2.934-2.054v-.33a5.353 5.353 0 0 0 1.54-2.566c.88 0 1.1-1.87 1.1-2.127 0-.257-.073-1.32-.476-1.43 1.466-5.133-2.934-7.333-6.747-4.693-1.613 0-2.127 2.346-1.54 4.693-.403 0-.477 1.1-.477 1.393 0 .294.22 2.127 1.1 2.127.294 1.063 1.1 1.943 1.797 2.567v.366c0 .587-.22 1.687-3.19 2.054C.44 17.673 0 20.533 0 20.533h16.133s.037-2.823-2.896-3.226z"/></g></symbol><symbol viewBox="0 0 24 24" id="video" xmlns="http://www.w3.org/2000/svg"><g class="ceicon-stroke" fill="none" fill-rule="evenodd" stroke-width="2" transform="translate(1 5)" stroke-linecap="round" stroke-linejoin="round"><polygon points="22 2 15 7 22 12"/><rect width="15" height="14" rx="2"/></g></symbol><symbol viewBox="0 0 24 24" id="video-off" xmlns="http://www.w3.org/2000/svg"><path d="M16 16v1a2 2 0 0 1-2 2H3a2 2 0 0 1-2-2V7a2 2 0 0 1 2-2h2m5.66 0H14a2 2 0 0 1 2 2v3.34l1 1L23 7v10M1 1l22 22" class="cficon-stroke" fill="none" fill-rule="evenodd" stroke-width="2" stroke-linecap="round" stroke-linejoin="round"/></symbol><symbol id="vimeo" viewBox="0 0 24 24" xmlns="http://www.w3.org/2000/svg"><path class="cgicon-fill" d="M23.9 6.5c-1.3 7.7-8.8 14.2-11.1 15.7-2.3 1.5-4.3-.6-5.1-2.2-.8-1.8-3.4-11.6-4-12.4S1 8.4 1 8.4L0 7.1s4.1-5 7.2-5.6c3.3-.7 3.3 5.2 4.1 8.4.8 3.1 1.3 4.9 2 4.9s1.9-1.7 3.3-4.4-.1-5-2.8-3.4c1.1-6.6 11.4-8.2 10.1-.5z"/></symbol><symbol viewBox="0 0 24 24" id="visible" xmlns="http://www.w3.org/2000/svg"><g class="chicon-stroke" fill="none" fill-rule="evenodd" stroke-width="2" transform="translate(1 4)" stroke-linecap="round" stroke-linejoin="round"><path d="M0 8s4-8 11-8 11 8 11 8-4 8-11 8S0 8 0 8z"/><circle cx="11" cy="8" r="3"/></g></symbol><symbol viewBox="0 0 24 24" id="visible-off" xmlns="http://www.w3.org/2000/svg"><path d="M17.94 17.94A10.07 10.07 0 0 1 12 20c-7 0-11-8-11-8a18.45 18.45 0 0 1 5.06-5.94M9.9 4.24A9.12 9.12 0 0 1 12 4c7 0 11 8 11 8a18.5 18.5 0 0 1-2.16 3.19m-6.72-1.07a3 3 0 1 1-4.24-4.24M1 1l22 22" class="ciicon-stroke" fill="none" fill-rule="evenodd" stroke-width="2" stroke-linecap="round" stroke-linejoin="round"/></symbol><symbol viewBox="0 0 24 24" id="youtube" xmlns="http://www.w3.org/2000/svg"><path class="cjicon-fill" d="M23.8 7.2s-.2-1.7-1-2.4c-.9-1-1.9-1-2.4-1-3.4-.2-8.4-.2-8.4-.2s-5 0-8.4.2c-.5.1-1.5.1-2.4 1-.7.7-1 2.4-1 2.4S0 9.1 0 11.1v1.8c0 1.9.2 3.9.2 3.9s.2 1.7 1 2.4c.9 1 2.1.9 2.6 1 1.9.2 8.2.2 8.2.2s5 0 8.4-.2c.5-.1 1.5-.1 2.4-1 .7-.7 1-2.4 1-2.4s.2-1.9.2-3.9v-1.8c0-2-.2-3.9-.2-3.9zM9.5 15.1V8.4l6.5 3.4-6.5 3.3z"/></symbol></svg>