<svg xmlns="http://www.w3.org/2000/svg" xmlns:xlink="http://www.w3.org/1999/xlink"><symbol viewBox="-241 333 128 128" id="picasa" xmlns="http://www.w3.org/2000/svg"><title>Aperture</title><path fill="#80B23C" d="M-192 419l-35.4-61.4c-8.5 10.9-13.6 24.5-13.6 39.4 0 7.7 1.4 15.1 3.9 22h45.1z"/><path fill="#2A91A8" d="M-165.5 421h-70.9c8.2 20.2 26.3 35.2 48.3 39l22.6-39z"/><path fill="#4A46AA" d="M-150.4 399l-35.4 61.4c2.9.4 5.9.6 8.9.6 19.7 0 37.4-8.9 49.1-23l-22.6-39z"/><path fill="#DA3A35" d="M-162 375l35.4 61.4c8.5-10.9 13.6-24.5 13.6-39.4 0-7.7-1.4-15.1-3.9-22H-162z"/><path fill="#F16522" d="M-188.5 373h70.9c-8.2-20.2-26.3-35.2-48.3-39-.1 0-22.6 39-22.6 39z"/><path fill="#FCB400" d="M-203.6 395l35.4-61.4c-2.9-.4-5.9-.6-8.9-.6-19.7 0-37.4 8.9-49.1 23l22.6 39z"/></symbol><symbol viewBox="-241 333 128 128" id="picasa-fill" xmlns="http://www.w3.org/2000/svg"><title>Aperture</title><path fill="#80B23C" d="M-192 419l-35.4-61.4c-8.5 10.9-13.6 24.5-13.6 39.4 0 7.7 1.4 15.1 3.9 22h45.1z"/><path fill="#0FF" d="M-165.5 421h-70.9c8.2 20.2 26.3 35.2 48.3 39l22.6-39z"/><path fill="#4A46AA" d="M-150.4 399l-35.4 61.4c2.9.4 5.9.6 8.9.6 19.7 0 37.4-8.9 49.1-23l-22.6-39z"/><path fill="#DA3A35" d="M-162 375l35.4 61.4c8.5-10.9 13.6-24.5 13.6-39.4 0-7.7-1.4-15.1-3.9-22H-162z"/><path fill="#F16522" d="M-188.5 373h70.9c-8.2-20.2-26.3-35.2-48.3-39-.1 0-22.6 39-22.6 39z"/><path fill="#FCB400" d="M-203.6 395l35.4-61.4c-2.9-.4-5.9-.6-8.9-.6-19.7 0-37.4 8.9-49.1 23l22.6 39z"/></symbol><symbol viewBox="-241 333 128 128" id="picasa-filled" xmlns="http://www.w3.org/2000/svg"><title>Aperture</title><path fill="#dd4b39" d="M-192 419l-35.4-61.4c-8.5 10.9-13.6 24.5-13.6 39.4 0 7.7 1.4 15.1 3.9 22h45.1zM-165.5 421h-70.9c8.2 20.2 26.3 35.2 48.3 39l22.6-39zM-150.4 399l-35.4 61.4c2.9.4 5.9.6 8.9.6 19.7 0 37.4-8.9 49.1-23l-22.6-39zM-162 375l35.4 61.4c8.5-10.9 13.6-24.5 13.6-39.4 0-7.7-1.4-15.1-3.9-22H-162zM-188.5 373h70.9c-8.2-20.2-26.3-35.2-48.3-39-.1 0-22.6 39-22.6 39zM-203.6 395l35.4-61.4c-2.9-.4-5.9-.6-8.9-.6-19.7 0-37.4 8.9-49.1 23l22.6 39z"/></symbol><symbol viewBox="0 0 92 75" id="twitter-default" xmlns="http://www.w3.org/2000/svg"><title>Twitter</title><path d="M92 8.85c-3.39 1.5-7.03 2.52-10.84 2.97 3.89-2.33 6.89-6.03 8.3-10.44a37.754 37.754 0 0 1-11.99 4.58A18.843 18.843 0 0 0 63.69 0C53.27 0 44.82 8.45 44.82 18.88c0 1.48.16 2.92.49 4.3-15.69-.79-29.6-8.3-38.91-19.72a18.809 18.809 0 0 0-2.55 9.49c0 6.54 3.33 12.32 8.39 15.71-3.09-.1-6-.95-8.55-2.36v.23c0 9.15 6.51 16.78 15.14 18.51-1.58.43-3.25.66-4.97.66-1.22 0-2.4-.11-3.55-.34 2.4 7.5 9.37 12.96 17.63 13.11A37.828 37.828 0 0 1 4.5 66.55c-1.52 0-3.03-.09-4.5-.26 8.35 5.35 18.27 8.48 28.93 8.48 34.72 0 53.71-28.76 53.71-53.71 0-.81-.02-1.63-.06-2.44 3.69-2.66 6.89-5.98 9.42-9.77"/></symbol><symbol viewBox="0 0 92 75" id="twitter-filled" xmlns="http://www.w3.org/2000/svg"><title>Twitter</title><path fill="#55acee" d="M92 8.85c-3.39 1.5-7.03 2.52-10.84 2.97 3.89-2.33 6.89-6.03 8.3-10.44a37.754 37.754 0 0 1-11.99 4.58A18.843 18.843 0 0 0 63.69 0C53.27 0 44.82 8.45 44.82 18.88c0 1.48.16 2.92.49 4.3-15.69-.79-29.6-8.3-38.91-19.72a18.809 18.809 0 0 0-2.55 9.49c0 6.54 3.33 12.32 8.39 15.71-3.09-.1-6-.95-8.55-2.36v.23c0 9.15 6.51 16.78 15.14 18.51-1.58.43-3.25.66-4.97.66-1.22 0-2.4-.11-3.55-.34 2.4 7.5 9.37 12.96 17.63 13.11A37.828 37.828 0 0 1 4.5 66.55c-1.52 0-3.03-.09-4.5-.26 8.35 5.35 18.27 8.48 28.93 8.48 34.72 0 53.71-28.76 53.71-53.71 0-.81-.02-1.63-.06-2.44 3.69-2.66 6.89-5.98 9.42-9.77"/></symbol></svg>