<svg version="1.1" id="Layer_1" xmlns="http://www.w3.org/2000/svg" xmlns:xlink="http://www.w3.org/1999/xlink" x="0px" y="0px"
	 viewBox="0 0 43.3 43.3" enable-background="new 0 0 43.3 43.3" xml:space="preserve">
<path d="M43.3,14.7c0-0.1,0-0.1,0-0.2c0,0,0-0.1,0-0.1c0,0,0-0.1,0-0.1
	c0,0,0-0.1,0-0.1c0,0,0-0.1-0.1-0.1c0,0,0-0.1-0.1-0.1c0,0-0.1-0.1-0.1-0.1c0,0,0-0.1-0.1-0.1c0,0-0.1-0.1-0.1-0.1c0,0,0,0-0.1-0.1
	c0,0-0.1-0.1-0.1-0.1c0,0-0.1,0-0.1-0.1c0,0,0,0,0,0L22.7,0.3c-0.6-0.4-1.4-0.4-2.1,0L0.8,13.5c0,0,0,0,0,0c0,0-0.1,0-0.1,0.1
	c0,0-0.1,0.1-0.1,0.1c0,0-0.1,0-0.1,0.1c0,0-0.1,0.1-0.1,0.1c0,0,0,0.1-0.1,0.1c0,0-0.1,0.1-0.1,0.1c0,0,0,0.1-0.1,0.1
	c0,0,0,0.1-0.1,0.1c0,0,0,0.1,0,0.1c0,0,0,0.1,0,0.1c0,0,0,0.1,0,0.1c0,0.1,0,0.1,0,0.2c0,0,0,0.1,0,0.1c0,0.1,0,0.2,0,0.2v13.2
	c0,0.1,0,0.2,0,0.2c0,0,0,0.1,0,0.1c0,0.1,0,0.1,0,0.2c0,0,0,0.1,0,0.1c0,0,0,0.1,0,0.1c0,0,0,0.1,0,0.1c0,0,0,0.1,0.1,0.1
	c0,0,0,0.1,0.1,0.1c0,0,0.1,0.1,0.1,0.1c0,0,0,0.1,0.1,0.1c0,0,0.1,0.1,0.1,0.1c0,0,0,0,0.1,0.1c0,0,0.1,0.1,0.1,0.1
	c0,0,0.1,0,0.1,0.1c0,0,0,0,0,0L20.6,43c0.3,0.2,0.7,0.3,1,0.3s0.7-0.1,1-0.3l19.8-13.2c0,0,0,0,0,0c0,0,0.1,0,0.1-0.1
	c0,0,0.1-0.1,0.1-0.1c0,0,0,0,0.1-0.1c0,0,0.1-0.1,0.1-0.1c0,0,0-0.1,0.1-0.1c0,0,0.1-0.1,0.1-0.1c0,0,0-0.1,0.1-0.1
	c0,0,0-0.1,0.1-0.1c0,0,0-0.1,0-0.1c0,0,0-0.1,0-0.1c0,0,0-0.1,0-0.1c0-0.1,0-0.1,0-0.2c0,0,0-0.1,0-0.1c0-0.1,0-0.2,0-0.2V15.1
	C43.3,15,43.3,14.9,43.3,14.7C43.3,14.8,43.3,14.8,43.3,14.7L43.3,14.7z M21.7,26.1l-6.6-4.4l6.6-4.4l6.6,4.4L21.7,26.1L21.7,26.1z
	 M19.8,14l-8.1,5.4l-6.5-4.4l14.6-9.7V14L19.8,14z M8.4,21.7l-4.7,3.1v-6.2L8.4,21.7L8.4,21.7z M11.7,23.9l8.1,5.4V38L5.2,28.3
	L11.7,23.9L11.7,23.9z M23.5,29.3l8.1-5.4l6.5,4.4L23.5,38V29.3L23.5,29.3L23.5,29.3z M35,21.7l4.7-3.1v6.2L35,21.7L35,21.7z
	 M31.6,19.4L23.5,14V5.3l14.6,9.7L31.6,19.4L31.6,19.4z"/>
</svg>
