<svg xmlns="http://www.w3.org/2000/svg" xmlns:xlink="http://www.w3.org/1999/xlink" version="1.1" id="Layer_1" x="0px" y="0px" width="100px" height="100px" viewBox="0 0 100 100" enable-background="new 0 0 100 100" xml:space="preserve">
<path d="M92.427,14.218H50.854h-1.416H7.867c-1.481,0-2.757,1.126-2.757,2.607v51.246v0.181v4.747v0.299  c0,1.48,1.275,2.726,2.757,2.726h33.296c-0.039,0.848-0.304,4.503-2.042,6.274c-1.369,1.395-3.271,2.704-2.528,3.376  c0.18,0.41,1.033,0.651,2.975,0.651c4.283,0,8.92,0,10.618,0c0.429,0,0.669,0,0.669,0c1.697,0,6.337,0,10.618,0  c2.211,0,2.984-0.362,2.991-0.903h-0.075v-0.179h-0.078c-0.1-0.729-1.574-1.809-2.69-2.943c-1.737-1.771-2.002-5.425-2.041-6.274  h32.85c1.482,0,2.681-1.244,2.681-2.726v-0.299v-4.747v-0.181V16.827C95.109,15.344,93.908,14.218,92.427,14.218z M50.109,73.426  c-0.967,0-1.749-0.782-1.749-1.749s0.782-1.749,1.749-1.749c0.966,0,1.75,0.782,1.75,1.749  C51.859,72.644,51.075,73.426,50.109,73.426z M91.314,64.278H8.906V17.834h82.409V64.278z"/>
</svg>