<?xml version="1.0" encoding="utf-8"?>
<!-- Generator: Adobe Illustrator 18.1.0, SVG Export Plug-In . SVG Version: 6.00 Build 0)  -->
<!DOCTYPE svg PUBLIC "-//W3C//DTD SVG 1.1//EN" "http://www.w3.org/Graphics/SVG/1.1/DTD/svg11.dtd">
<svg version="1.1" id="Layer_1" xmlns="http://www.w3.org/2000/svg" xmlns:xlink="http://www.w3.org/1999/xlink" x="0px" y="0px"
	 viewBox="0 0 184.3 184.3" xml:space="preserve">
<path d="M92.2,184.3C41.3,184.3,0,143,0,92.2S41.3,0,92.2,0s92.2,41.3,92.2,92.2
	S143,184.3,92.2,184.3L92.2,184.3z M169.9,104.8c-2.7-0.9-24.4-7.3-49-3.4c10.3,28.3,14.5,51.3,15.3,56.1
	C153.8,145.6,166.4,126.7,169.9,104.8L169.9,104.8z M122.9,164.7c-1.2-6.9-5.7-31-16.8-59.7c-0.2,0.1-0.3,0.1-0.5,0.2
	c-44.4,15.5-60.3,46.3-61.8,49.2C57.2,164.8,74,171,92.2,171C103.1,171,113.5,168.8,122.9,164.7L122.9,164.7z M33.7,144.9
	c1.8-3.1,23.4-38.8,64-51.9c1-0.3,2.1-0.6,3.1-0.9c-2-4.5-4.1-8.9-6.4-13.4C55.1,90.4,16.9,89.9,13.5,89.9c0,0.8,0,1.6,0,2.4
	C13.4,112.5,21.1,131,33.7,144.9L33.7,144.9z M15.1,76.2c3.5,0,36,0.2,72.8-9.6C74.8,43.4,60.8,23.9,58.7,21
	C36.7,31.4,20.2,51.7,15.1,76.2L15.1,76.2z M73.7,15.7c2.2,2.9,16.5,22.4,29.4,46.1c28-10.5,39.8-26.4,41.3-28.4
	c-13.9-12.3-32.2-19.8-52.2-19.8C85.8,13.6,79.6,14.3,73.7,15.7L73.7,15.7z M153.1,42.5c-1.7,2.2-14.9,19.2-44,31
	c1.8,3.7,3.6,7.6,5.2,11.4c0.6,1.4,1.1,2.7,1.7,4.1c26.2-3.3,52.2,2,54.8,2.5C170.7,73,164,55.9,153.1,42.5L153.1,42.5z"/>
</svg>
