<?xml version="1.0" encoding="utf-8"?>
<!-- Generator: Adobe Illustrator 18.1.0, SVG Export Plug-In . SVG Version: 6.00 Build 0)  -->
<!DOCTYPE svg PUBLIC "-//W3C//DTD SVG 1.1//EN" "http://www.w3.org/Graphics/SVG/1.1/DTD/svg11.dtd">
<svg version="1.1" id="Layer_1" xmlns="http://www.w3.org/2000/svg" xmlns:xlink="http://www.w3.org/1999/xlink" x="0px" y="0px"
	 viewBox="0 0 16 16" enable-background="new 0 0 16 16" xml:space="preserve">
<g>
	<path d="M16,8c0,4.4-3.6,8-8,8c-4.4,0-8-3.6-8-8c0-4.4,3.6-8,8-8C12.4,0,16,3.6,16,8z M10,14.5c2.7-1,4.7-3.5,4.7-6.5
		c0-3.7-3-6.7-6.7-6.7c-3.7,0-6.7,3-6.7,6.7c0,3,2,5.6,4.8,6.5v-1.3c0-0.8,0.3-1.2,0.6-1.4C5,11.6,3.1,11,3.1,8
		c0-0.8,0.3-1.5,0.8-2.1C3.8,5.8,3.6,5,4,3.9c0,0,0.6-0.2,2.1,0.8C6.7,4.5,7.4,4.5,8,4.5c0.7,0,1.3,0.1,1.9,0.3
		c1.5-1,2.1-0.8,2.1-0.8c0.4,1.1,0.2,1.8,0.1,2c0.5,0.5,0.8,1.2,0.8,2.1c0,3-1.9,3.6-3.6,3.8C9.6,12,10,12.5,10,13.2V14.5z"/>
</g>
</svg>
