<?xml version="1.0" encoding="utf-8"?>
<!-- Generator: Adobe Illustrator 18.1.0, SVG Export Plug-In . SVG Version: 6.00 Build 0)  -->
<!DOCTYPE svg PUBLIC "-//W3C//DTD SVG 1.1//EN" "http://www.w3.org/Graphics/SVG/1.1/DTD/svg11.dtd">
<svg version="1.1" id="Layer_1" xmlns="http://www.w3.org/2000/svg" xmlns:xlink="http://www.w3.org/1999/xlink" x="0px" y="0px"
	 viewBox="0 0 100 100" enable-background="new 0 0 100 100" xml:space="preserve">
<g>
	<path d="M22.7,11.4c0,5.9-4.3,10.7-11.6,10.7C4.3,22.1,0,17.3,0,11.4c0-6,4.6-10.7,11.4-10.7S22.6,5.4,22.7,11.4z M0.6,99.3V30.5
		h21.3v68.8H0.6z"/>
	<path d="M34.8,52.5c0-8.6-0.3-15.8-0.6-21.9h18.6l1,9.6h0.4c2.8-4.6,9.7-11.1,21.2-11.1c14.1,0,24.7,9.4,24.7,29.7v40.7H78.7V61.2
		c0-8.9-3.1-14.9-10.8-14.9c-5.9,0-9.4,4.1-11,8c-0.6,1.4-0.7,3.3-0.7,5.3v39.7H34.8V52.5z"/>
</g>
</svg>
