<?xml version="1.0" encoding="UTF-8" standalone="no"?>
<svg width="92px" height="75px" viewBox="0 0 92 75" version="1.1" xmlns="http://www.w3.org/2000/svg" xmlns:xlink="http://www.w3.org/1999/xlink" xmlns:sketch="http://www.bohemiancoding.com/sketch/ns">
    <!-- Generator: Sketch 3.1 (8751) - http://www.bohemiancoding.com/sketch -->
    <title>Twitter</title>
    <defs></defs>
    <g id="Page-1" stroke="none" stroke-width="1" sketch:type="MSPage">
        <path d="M92,8.85 C88.61,10.35 84.97,11.37 81.16,11.82 C85.05,9.49 88.05,5.79 89.46,1.38 C85.81,3.54 81.77,5.12 77.47,5.96 C74.03,2.29 69.12,0 63.69,0 C53.27,0 44.82,8.45 44.82,18.88 C44.82,20.36 44.98,21.8 45.31,23.18 C29.62,22.39 15.71,14.88 6.4,3.46 C4.78,6.24 3.85,9.49 3.85,12.95 C3.85,19.49 7.18,25.27 12.24,28.66 C9.15,28.56 6.24,27.71 3.69,26.3 L3.69,26.53 C3.69,35.68 10.2,43.31 18.83,45.04 C17.25,45.47 15.58,45.7 13.86,45.7 C12.64,45.7 11.46,45.59 10.31,45.36 C12.71,52.86 19.68,58.32 27.94,58.47 C21.48,63.54 13.34,66.55 4.5,66.55 C2.98,66.55 1.47,66.46 0,66.29 C8.35,71.64 18.27,74.77 28.93,74.77 C63.65,74.77 82.64,46.01 82.64,21.06 C82.64,20.25 82.62,19.43 82.58,18.62 C86.27,15.96 89.47,12.64 92,8.85" id="twitter" sketch:type="MSShapeGroup"></path>
    </g>
</svg>